<svg width="385" height="481" viewBox="0 0 385 481" fill="none" xmlns="http://www.w3.org/2000/svg">
<rect width="385" height="481" rx="12" fill="#373E46"/>
<rect x="19" y="30" width="340" height="58" fill="#3F4954"/>
<path d="M294.482 74H290.229V53.4512L283.953 55.5957V51.9922L293.938 48.3184H294.482V74ZM317.826 64.877H321.008V68.3047H317.826V74H313.555V68.3047H302.498L302.375 65.7031L313.414 48.4062H317.826V64.877ZM306.857 64.877H313.555V54.1895L313.238 54.752L306.857 64.877ZM340.52 63.2246C340.52 66.9043 339.828 69.6816 338.445 71.5566C337.074 73.4199 334.982 74.3516 332.17 74.3516C329.404 74.3516 327.318 73.4434 325.912 71.627C324.518 69.7988 323.803 67.0977 323.768 63.5234V59.0938C323.768 55.4141 324.453 52.6543 325.824 50.8145C327.207 48.9746 329.311 48.0547 332.135 48.0547C334.936 48.0547 337.021 48.9512 338.393 50.7441C339.775 52.5371 340.484 55.2207 340.52 58.7949V63.2246ZM336.248 58.4434C336.248 56.041 335.92 54.2832 335.264 53.1699C334.607 52.0449 333.564 51.4824 332.135 51.4824C330.74 51.4824 329.715 52.0156 329.059 53.082C328.402 54.1367 328.057 55.7891 328.021 58.0391V63.8398C328.021 66.2305 328.355 68.0117 329.023 69.1836C329.691 70.3555 330.74 70.9414 332.17 70.9414C333.541 70.9414 334.555 70.4023 335.211 69.3242C335.867 68.2344 336.213 66.5352 336.248 64.2266V58.4434Z" fill="white"/>
<rect x="27" y="126" width="70" height="70" rx="12" fill="#FD6950"/>
<path d="M67.4824 175H63.2285V154.451L56.9531 156.596V152.992L66.9375 149.318H67.4824V175Z" fill="white"/>
<rect x="27" y="212" width="70" height="70" rx="12" fill="#FD6950"/>
<path d="M70.3652 251.877H73.5469V255.305H70.3652V261H66.0938V255.305H55.0371L54.9141 252.703L65.9531 235.406H70.3652V251.877ZM59.3965 251.877H66.0938V241.189L65.7773 241.752L59.3965 251.877Z" fill="white"/>
<rect x="27" y="298" width="70" height="70" rx="12" fill="#FD6950"/>
<path d="M72.9492 323.779L62.7188 347H58.2363L68.4492 324.834H55.2129V321.406H72.9492V323.779Z" fill="white"/>
<rect x="27" y="384" width="158" height="70" rx="12" fill="#FD6950"/>
<path d="M113.598 420.225C113.598 423.904 112.906 426.682 111.523 428.557C110.152 430.42 108.061 431.352 105.248 431.352C102.482 431.352 100.396 430.443 98.9902 428.627C97.5957 426.799 96.8809 424.098 96.8457 420.523V416.094C96.8457 412.414 97.5312 409.654 98.9023 407.814C100.285 405.975 102.389 405.055 105.213 405.055C108.014 405.055 110.1 405.951 111.471 407.744C112.854 409.537 113.562 412.221 113.598 415.795V420.225ZM109.326 415.443C109.326 413.041 108.998 411.283 108.342 410.17C107.686 409.045 106.643 408.482 105.213 408.482C103.818 408.482 102.793 409.016 102.137 410.082C101.48 411.137 101.135 412.789 101.1 415.039V420.84C101.1 423.23 101.434 425.012 102.102 426.184C102.77 427.355 103.818 427.941 105.248 427.941C106.619 427.941 107.633 427.402 108.289 426.324C108.945 425.234 109.291 423.535 109.326 421.227V415.443Z" fill="white"/>
<rect x="115" y="126" width="70" height="70" rx="12" fill="#FD6950"/>
<path d="M161.125 175H143.916V172.064L152.441 162.766C153.672 161.395 154.545 160.252 155.061 159.338C155.588 158.412 155.852 157.486 155.852 156.561C155.852 155.342 155.506 154.357 154.814 153.607C154.135 152.857 153.215 152.482 152.055 152.482C150.672 152.482 149.6 152.904 148.838 153.748C148.076 154.592 147.695 155.746 147.695 157.211H143.424C143.424 155.652 143.775 154.252 144.479 153.01C145.193 151.756 146.207 150.783 147.52 150.092C148.844 149.4 150.367 149.055 152.09 149.055C154.574 149.055 156.531 149.682 157.961 150.936C159.402 152.178 160.123 153.9 160.123 156.104C160.123 157.381 159.76 158.723 159.033 160.129C158.318 161.523 157.141 163.111 155.5 164.893L149.242 171.59H161.125V175Z" fill="white"/>
<rect x="115" y="212" width="70" height="70" rx="12" fill="#FD6950"/>
<path d="M145.059 248.309L146.447 235.406H160.193V239.098H149.998L149.295 245.215C150.479 244.535 151.814 244.195 153.303 244.195C155.74 244.195 157.633 244.975 158.98 246.533C160.34 248.092 161.02 250.189 161.02 252.826C161.02 255.428 160.27 257.502 158.77 259.049C157.27 260.584 155.213 261.352 152.6 261.352C150.256 261.352 148.311 260.689 146.764 259.365C145.229 258.029 144.396 256.271 144.268 254.092H148.398C148.562 255.334 149.008 256.289 149.734 256.957C150.461 257.613 151.41 257.941 152.582 257.941C153.895 257.941 154.914 257.473 155.641 256.535C156.379 255.598 156.748 254.32 156.748 252.703C156.748 251.145 156.344 249.914 155.535 249.012C154.727 248.098 153.613 247.641 152.195 247.641C151.422 247.641 150.766 247.746 150.227 247.957C149.688 248.156 149.102 248.555 148.469 249.152L145.059 248.309Z" fill="white"/>
<rect x="115" y="298" width="70" height="70" rx="12" fill="#FD6950"/>
<path d="M160.035 328.156C160.035 329.41 159.713 330.529 159.068 331.514C158.424 332.486 157.545 333.254 156.432 333.816C157.768 334.438 158.793 335.287 159.508 336.365C160.234 337.443 160.598 338.662 160.598 340.021C160.598 342.271 159.836 344.059 158.312 345.383C156.789 346.695 154.762 347.352 152.23 347.352C149.688 347.352 147.648 346.689 146.113 345.365C144.59 344.041 143.828 342.26 143.828 340.021C143.828 338.65 144.191 337.42 144.918 336.33C145.645 335.24 146.664 334.402 147.977 333.816C146.875 333.254 146.002 332.486 145.357 331.514C144.725 330.529 144.408 329.41 144.408 328.156C144.408 325.977 145.111 324.248 146.518 322.971C147.924 321.693 149.822 321.055 152.213 321.055C154.615 321.055 156.52 321.693 157.926 322.971C159.332 324.248 160.035 325.977 160.035 328.156ZM156.326 339.811C156.326 338.545 155.945 337.525 155.184 336.752C154.434 335.967 153.438 335.574 152.195 335.574C150.953 335.574 149.957 335.961 149.207 336.734C148.469 337.508 148.1 338.533 148.1 339.811C148.1 341.064 148.463 342.066 149.189 342.816C149.928 343.566 150.941 343.941 152.23 343.941C153.52 343.941 154.521 343.578 155.236 342.852C155.963 342.125 156.326 341.111 156.326 339.811ZM155.781 328.314C155.781 327.201 155.459 326.287 154.814 325.572C154.17 324.846 153.303 324.482 152.213 324.482C151.123 324.482 150.262 324.828 149.629 325.52C148.996 326.199 148.68 327.131 148.68 328.314C148.68 329.486 148.996 330.418 149.629 331.109C150.273 331.801 151.141 332.146 152.23 332.146C153.32 332.146 154.182 331.801 154.814 331.109C155.459 330.418 155.781 329.486 155.781 328.314Z" fill="white"/>
<rect x="203" y="126" width="70" height="70" rx="12" fill="#FD6950"/>
<path d="M236.855 160.252H239.457C240.77 160.24 241.807 159.9 242.568 159.232C243.342 158.564 243.729 157.598 243.729 156.332C243.729 155.113 243.406 154.17 242.762 153.502C242.129 152.822 241.156 152.482 239.844 152.482C238.695 152.482 237.752 152.816 237.014 153.484C236.275 154.141 235.906 155.002 235.906 156.068H231.635C231.635 154.756 231.98 153.561 232.672 152.482C233.375 151.404 234.348 150.566 235.59 149.969C236.844 149.359 238.244 149.055 239.791 149.055C242.346 149.055 244.35 149.699 245.803 150.988C247.268 152.266 248 154.047 248 156.332C248 157.48 247.631 158.564 246.893 159.584C246.166 160.592 245.223 161.354 244.062 161.869C245.469 162.35 246.535 163.105 247.262 164.137C248 165.168 248.369 166.398 248.369 167.828C248.369 170.125 247.578 171.953 245.996 173.312C244.426 174.672 242.357 175.352 239.791 175.352C237.33 175.352 235.314 174.695 233.744 173.383C232.174 172.07 231.389 170.324 231.389 168.145H235.66C235.66 169.27 236.035 170.184 236.785 170.887C237.547 171.59 238.566 171.941 239.844 171.941C241.168 171.941 242.211 171.59 242.973 170.887C243.734 170.184 244.115 169.164 244.115 167.828C244.115 166.48 243.717 165.443 242.92 164.717C242.123 163.99 240.939 163.627 239.369 163.627H236.855V160.252Z" fill="white"/>
<rect x="291" y="126" width="70" height="70" rx="12" fill="white"/>
<path d="M323.836 160.914L318.475 159.367L319.441 156.396L324.75 158.453L324.486 152.406H327.633L327.369 158.559L332.59 156.537L333.539 159.561L328.09 161.107L331.605 165.783L329.057 167.646L325.893 162.584L322.764 167.488L320.197 165.695L323.836 160.914Z" fill="#FD6950"/>
<rect x="291" y="213" width="70" height="70" rx="12" fill="white"/>
<path d="M326.764 254.5C327.561 254.5 328.176 254.729 328.609 255.186C329.043 255.631 329.26 256.193 329.26 256.873C329.26 257.541 329.043 258.098 328.609 258.543C328.176 258.977 327.561 259.193 326.764 259.193C326.002 259.193 325.398 258.977 324.953 258.543C324.508 258.109 324.285 257.553 324.285 256.873C324.285 256.193 324.502 255.631 324.936 255.186C325.369 254.729 325.979 254.5 326.764 254.5ZM326.764 239.576C327.561 239.576 328.176 239.805 328.609 240.262C329.043 240.707 329.26 241.27 329.26 241.949C329.26 242.617 329.043 243.174 328.609 243.619C328.176 244.053 327.561 244.27 326.764 244.27C326.002 244.27 325.398 244.053 324.953 243.619C324.508 243.186 324.285 242.629 324.285 241.949C324.285 241.27 324.502 240.707 324.936 240.262C325.369 239.805 325.979 239.576 326.764 239.576Z" fill="#FD6950"/>
<rect x="291" y="298" width="70" height="70" rx="12" fill="white"/>
<path d="M328.059 331.92H334.738V335.822H328.059V343.434H323.91V335.822H317.195V331.92H323.91V324.801H328.059V331.92Z" fill="#FD6950"/>
<rect x="292" y="384" width="70" height="70" rx="12" fill="white"/>
<path d="M334.701 418.289H319.549V414.738H334.701V418.289ZM334.701 425.742H319.549V422.209H334.701V425.742Z" fill="#FD6950"/>
<rect x="203" y="212" width="70" height="70" rx="12" fill="#FD6950"/>
<path d="M245.205 235.283V238.816H244.678C242.287 238.852 240.377 239.508 238.947 240.785C237.518 242.062 236.668 243.873 236.398 246.217C237.77 244.775 239.521 244.055 241.654 244.055C243.916 244.055 245.697 244.852 246.998 246.445C248.311 248.039 248.967 250.096 248.967 252.615C248.967 255.217 248.199 257.326 246.664 258.943C245.141 260.549 243.137 261.352 240.652 261.352C238.098 261.352 236.023 260.408 234.43 258.521C232.848 256.635 232.057 254.162 232.057 251.104V249.645C232.057 245.156 233.146 241.641 235.326 239.098C237.518 236.555 240.664 235.283 244.766 235.283H245.205ZM240.617 247.5C239.68 247.5 238.818 247.764 238.033 248.291C237.26 248.818 236.691 249.521 236.328 250.4V251.701C236.328 253.6 236.727 255.111 237.523 256.236C238.32 257.35 239.352 257.906 240.617 257.906C241.883 257.906 242.885 257.432 243.623 256.482C244.361 255.533 244.73 254.285 244.73 252.738C244.73 251.191 244.355 249.932 243.605 248.959C242.855 247.986 241.859 247.5 240.617 247.5Z" fill="white"/>
<rect x="203" y="298" width="70" height="70" rx="12" fill="#FD6950"/>
<path d="M244.027 336.295C242.598 337.807 240.928 338.562 239.018 338.562C236.768 338.562 234.975 337.777 233.639 336.207C232.303 334.625 231.635 332.551 231.635 329.984C231.635 328.297 231.975 326.768 232.654 325.396C233.334 324.025 234.301 322.959 235.555 322.197C236.809 321.436 238.262 321.055 239.914 321.055C242.492 321.055 244.537 322.016 246.049 323.938C247.561 325.859 248.316 328.432 248.316 331.654V332.85C248.316 337.467 247.273 340.988 245.188 343.414C243.102 345.84 239.99 347.07 235.854 347.105H235.344V343.572H235.959C238.479 343.537 240.412 342.934 241.76 341.762C243.107 340.578 243.863 338.756 244.027 336.295ZM239.914 335.223C240.77 335.223 241.572 334.977 242.322 334.484C243.072 333.992 243.652 333.312 244.062 332.445V330.775C244.062 328.889 243.676 327.371 242.902 326.223C242.129 325.074 241.127 324.5 239.896 324.5C238.666 324.5 237.682 325.01 236.943 326.029C236.217 327.037 235.854 328.314 235.854 329.861C235.854 331.467 236.223 332.762 236.961 333.746C237.699 334.73 238.684 335.223 239.914 335.223Z" fill="white"/>
<rect x="203" y="384" width="70" height="70" rx="12" fill="#FD6950"/>
<path d="M238.852 417.5C239.648 417.5 240.264 417.729 240.697 418.186C241.131 418.631 241.348 419.193 241.348 419.873C241.348 420.541 241.131 421.098 240.697 421.543C240.264 421.977 239.648 422.193 238.852 422.193C238.09 422.193 237.486 421.977 237.041 421.543C236.596 421.109 236.373 420.553 236.373 419.873C236.373 419.193 236.59 418.631 237.023 418.186C237.457 417.729 238.066 417.5 238.852 417.5Z" fill="white"/>
</svg>
