<svg width="229" height="55" viewBox="0 0 229 55" fill="none" xmlns="http://www.w3.org/2000/svg">
<g filter="url(#filter0_d)">
<path d="M21.416 35.864L18.872 38.696V47H7.736V13.4H18.872V25.592L29.912 13.4H42.248L28.808 28.184L42.92 47H29.816L21.416 35.864ZM60.9271 42.608H51.3511L49.6591 47H41.0191L52.0351 21.8H60.3871L71.4031 47H62.6191L60.9271 42.608ZM58.5871 36.488L56.1391 30.152L53.6911 36.488H58.5871ZM92.919 33.824C94.407 34.376 95.559 35.18 96.375 36.236C97.191 37.292 97.599 38.564 97.599 40.052C97.599 42.26 96.687 43.976 94.863 45.2C93.039 46.4 90.399 47 86.943 47H72.759V21.8H86.223C89.583 21.8 92.115 22.4 93.819 23.6C95.547 24.8 96.411 26.396 96.411 28.388C96.411 29.564 96.111 30.62 95.511 31.556C94.935 32.492 94.071 33.248 92.919 33.824ZM81.111 27.74V31.484H85.071C86.919 31.484 87.843 30.86 87.843 29.612C87.843 28.364 86.919 27.74 85.071 27.74H81.111ZM86.223 41.06C88.095 41.06 89.031 40.4 89.031 39.08C89.031 37.76 88.095 37.1 86.223 37.1H81.111V41.06H86.223ZM113.815 47.576C111.103 47.576 108.667 47.012 106.507 45.884C104.347 44.756 102.655 43.196 101.431 41.204C100.207 39.188 99.5948 36.92 99.5948 34.4C99.5948 31.88 100.207 29.624 101.431 27.632C102.655 25.616 104.347 24.044 106.507 22.916C108.667 21.788 111.103 21.224 113.815 21.224C116.527 21.224 118.963 21.788 121.123 22.916C123.283 24.044 124.975 25.616 126.199 27.632C127.423 29.624 128.035 31.88 128.035 34.4C128.035 36.92 127.423 39.188 126.199 41.204C124.975 43.196 123.283 44.756 121.123 45.884C118.963 47.012 116.527 47.576 113.815 47.576ZM113.815 40.7C114.871 40.7 115.819 40.448 116.659 39.944C117.523 39.416 118.207 38.684 118.711 37.748C119.215 36.788 119.467 35.672 119.467 34.4C119.467 33.128 119.215 32.024 118.711 31.088C118.207 30.128 117.523 29.396 116.659 28.892C115.819 28.364 114.871 28.1 113.815 28.1C112.759 28.1 111.799 28.364 110.935 28.892C110.095 29.396 109.423 30.128 108.919 31.088C108.415 32.024 108.163 33.128 108.163 34.4C108.163 35.672 108.415 36.788 108.919 37.748C109.423 38.684 110.095 39.416 110.935 39.944C111.799 40.448 112.759 40.7 113.815 40.7ZM144.33 47.576C141.618 47.576 139.182 47.012 137.022 45.884C134.862 44.756 133.17 43.196 131.946 41.204C130.722 39.188 130.11 36.92 130.11 34.4C130.11 31.88 130.722 29.624 131.946 27.632C133.17 25.616 134.862 24.044 137.022 22.916C139.182 21.788 141.618 21.224 144.33 21.224C147.042 21.224 149.478 21.788 151.638 22.916C153.798 24.044 155.49 25.616 156.714 27.632C157.938 29.624 158.55 31.88 158.55 34.4C158.55 36.92 157.938 39.188 156.714 41.204C155.49 43.196 153.798 44.756 151.638 45.884C149.478 47.012 147.042 47.576 144.33 47.576ZM144.33 40.7C145.386 40.7 146.334 40.448 147.174 39.944C148.038 39.416 148.722 38.684 149.226 37.748C149.73 36.788 149.982 35.672 149.982 34.4C149.982 33.128 149.73 32.024 149.226 31.088C148.722 30.128 148.038 29.396 147.174 28.892C146.334 28.364 145.386 28.1 144.33 28.1C143.274 28.1 142.314 28.364 141.45 28.892C140.61 29.396 139.938 30.128 139.434 31.088C138.93 32.024 138.678 33.128 138.678 34.4C138.678 35.672 138.93 36.788 139.434 37.748C139.938 38.684 140.61 39.416 141.45 39.944C142.314 40.448 143.274 40.7 144.33 40.7ZM184.134 47L184.062 35.516L178.59 44.732H174.846L169.374 35.912V47H161.634V21.8H168.618L176.826 35.228L184.818 21.8H191.802L191.874 47H184.134Z" fill="white"/>
</g>
<path d="M211.42 22.104V23H204.546V22.286L208.62 18.296C209.133 17.792 209.479 17.358 209.656 16.994C209.843 16.6207 209.936 16.2473 209.936 15.874C209.936 15.2953 209.735 14.8473 209.334 14.53C208.942 14.2033 208.377 14.04 207.64 14.04C206.492 14.04 205.601 14.404 204.966 15.132L204.252 14.516C204.635 14.068 205.12 13.7227 205.708 13.48C206.305 13.2373 206.977 13.116 207.724 13.116C208.723 13.116 209.511 13.354 210.09 13.83C210.678 14.2967 210.972 14.9407 210.972 15.762C210.972 16.266 210.86 16.7513 210.636 17.218C210.412 17.6847 209.987 18.2213 209.362 18.828L206.03 22.104H211.42ZM213.578 23.07C213.372 23.07 213.195 22.9953 213.046 22.846C212.906 22.6967 212.836 22.5147 212.836 22.3C212.836 22.0853 212.906 21.908 213.046 21.768C213.195 21.6187 213.372 21.544 213.578 21.544C213.783 21.544 213.96 21.6187 214.11 21.768C214.259 21.908 214.334 22.0853 214.334 22.3C214.334 22.5147 214.259 22.6967 214.11 22.846C213.96 22.9953 213.783 23.07 213.578 23.07ZM219.544 23.084C218.788 23.084 218.111 22.8833 217.514 22.482C216.926 22.0807 216.464 21.5067 216.128 20.76C215.801 20.004 215.638 19.1173 215.638 18.1C215.638 17.0827 215.801 16.2007 216.128 15.454C216.464 14.698 216.926 14.1193 217.514 13.718C218.111 13.3167 218.788 13.116 219.544 13.116C220.3 13.116 220.972 13.3167 221.56 13.718C222.157 14.1193 222.624 14.698 222.96 15.454C223.296 16.2007 223.464 17.0827 223.464 18.1C223.464 19.1173 223.296 20.004 222.96 20.76C222.624 21.5067 222.157 22.0807 221.56 22.482C220.972 22.8833 220.3 23.084 219.544 23.084ZM219.544 22.16C220.113 22.16 220.613 22.0013 221.042 21.684C221.481 21.3667 221.821 20.9047 222.064 20.298C222.307 19.6913 222.428 18.9587 222.428 18.1C222.428 17.2413 222.307 16.5087 222.064 15.902C221.821 15.2953 221.481 14.8333 221.042 14.516C220.613 14.1987 220.113 14.04 219.544 14.04C218.975 14.04 218.471 14.1987 218.032 14.516C217.603 14.8333 217.267 15.2953 217.024 15.902C216.781 16.5087 216.66 17.2413 216.66 18.1C216.66 18.9587 216.781 19.6913 217.024 20.298C217.267 20.9047 217.603 21.3667 218.032 21.684C218.471 22.0013 218.975 22.16 219.544 22.16Z" fill="#FD6950"/>
<defs>
<filter id="filter0_d" x="0.735992" y="5.40002" width="198.138" height="48.176" filterUnits="userSpaceOnUse" color-interpolation-filters="sRGB">
<feFlood flood-opacity="0" result="BackgroundImageFix"/>
<feColorMatrix in="SourceAlpha" type="matrix" values="0 0 0 0 0 0 0 0 0 0 0 0 0 0 0 0 0 0 127 0"/>
<feOffset dy="-1"/>
<feGaussianBlur stdDeviation="3.5"/>
<feColorMatrix type="matrix" values="0 0 0 0 1 0 0 0 0 1 0 0 0 0 1 0 0 0 0.32 0"/>
<feBlend mode="normal" in2="BackgroundImageFix" result="effect1_dropShadow"/>
<feBlend mode="normal" in="SourceGraphic" in2="effect1_dropShadow" result="shape"/>
</filter>
</defs>
</svg>
